<svg viewBox="804 0 240 235" xmlns:xlink="http://www.w3.org/1999/xlink" version="1.1" xmlns="http://www.w3.org/2000/svg" style="max-height: 500px" width="240" height="235"><g transform="matrix(1,0,0,1,-0.42436468428400076,-1.91603533333425)"><svg xmlns:xlink="http://www.w3.org/1999/xlink" xmlns="http://www.w3.org/2000/svg" width="1500" height="235" preserveAspectRatio="xMidYMid meet" data-background-color="#35185a" viewBox="0 0 370 58"><g transform="matrix(1,0,0,1,0.10467662212337814,0.4728938269505818)" id="tight-bounds"><svg width="369.79064675575324" height="57.6008" viewBox="0 0 369.79064675575324 57.6008"><g><svg width="369.79064675575324" height="57.6008" viewBox="0 0 369.79064675575324 57.6008"><g><svg width="369.79064675575324" height="57.6008" viewBox="0 0 369.79064675575324 57.6008"><g id="textblocktransform"><svg id="textblock" width="369.79064675575324" height="57.6008" viewBox="0 0 369.79064675575324 57.6008"><g><svg width="369.79064675575324" height="57.6008" viewBox="0 0 369.79064675575324 57.6008"><g><svg><g/><g/></svg></g><g><svg><g><svg/></g><g/></svg></g><g id="text-0"><svg width="369.79064675575324" height="57.6008" viewBox="0 0 369.79064675575324 57.6008"><g transform="matrix(1,0,0,1,0,10.950399999999998)"><svg data-palette-color="#ffffff" height="35.400000000000006" viewBox="4.35 -34.95 184.74 35.400000000000006" width="184.75000000000006"><path data-fill-palette-color="primary" class="undefined-tk-0" fill="#ffffff" transform="matrix(1,0,0,1,0,0)" opacity="1" d="M16.25-34.95L16.25-34.95Q20.25-34.95 22.7-34.08 25.15-33.2 26.28-31.05 27.4-28.9 27.4-25L27.4-25Q27.4-22.2 26.75-20.33 26.1-18.45 24.73-17.43 23.35-16.4 21.05-16.1L21.05-16.1 21.05-15.85Q21.9-15.65 22.73-15.03 23.55-14.4 24.25-13.38 24.95-12.35 25.3-10.9L25.3-10.9 28.65 0 23.95 0 20.9-10.8Q20.25-12.75 19.15-13.58 18.05-14.4 16.3-14.4L16.3-14.4Q13.25-14.4 11-14.43 8.75-14.45 7.25-14.5 5.75-14.55 4.85-14.55L4.85-14.55 5-18.2 16.15-18.2Q18.7-18.25 20.18-18.8 21.65-19.35 22.3-20.78 22.95-22.2 22.95-24.75L22.95-24.75Q22.95-27.3 22.3-28.68 21.65-30.05 20.18-30.6 18.7-31.15 16.15-31.15L16.15-31.15Q12.05-31.15 9.08-31.1 6.1-31.05 5.05-31.05L5.05-31.05 4.35-34.5Q6.25-34.7 7.9-34.8 9.55-34.9 11.53-34.93 13.5-34.95 16.25-34.95ZM4.35-34.5L8.7-34.5 8.7 0 4.35 0 4.35-34.5ZM46.3-24.95L46.3-24.95Q49-24.95 50.87-24.23 52.75-23.5 53.7-21.8 54.65-20.1 54.65-17.15L54.65-17.15 54.65 0 51.3 0 50.65-5.3 50.35-5.85 50.35-17.15Q50.35-19.4 49.32-20.38 48.3-21.35 45.4-21.35L45.4-21.35Q43.5-21.35 40.62-21.15 37.75-20.95 34.95-20.7L34.95-20.7 34.55-23.85Q36.25-24.15 38.27-24.4 40.3-24.65 42.4-24.8 44.5-24.95 46.3-24.95ZM40.2-15L52.65-15 52.6-11.8 40.95-11.75Q39.2-11.7 38.5-10.83 37.8-9.95 37.8-8.4L37.8-8.4 37.8-6.85Q37.8-4.95 38.7-4.08 39.6-3.2 41.6-3.2L41.6-3.2Q43-3.2 44.77-3.73 46.55-4.25 48.35-5.35 50.15-6.45 51.65-8.15L51.65-8.15 51.65-5Q51.1-4.3 50.07-3.38 49.05-2.45 47.62-1.58 46.2-0.7 44.47-0.13 42.75 0.45 40.75 0.45L40.75 0.45Q38.6 0.45 36.95-0.33 35.3-1.1 34.37-2.63 33.45-4.15 33.45-6.35L33.45-6.35 33.45-9Q33.45-11.85 35.22-13.43 37-15 40.2-15L40.2-15ZM91.9-24.95L91.9-24.95Q95.05-24.95 96.72-23.25 98.4-21.55 98.4-18.25L98.4-18.25 98.4 0 94.2 0 94.2-17.05Q94.15-19.3 93.3-20.33 92.45-21.35 90.4-21.35L90.4-21.35Q89.09-21.35 87.92-20.93 86.75-20.5 85.34-19.6 83.95-18.7 81.95-17.25L81.95-17.25 81.7-20.25Q84.34-22.6 86.84-23.78 89.34-24.95 91.9-24.95ZM62.25-24.35L65.75-24.35 66.05-19.7 66.5-18.95 66.5 0 62.25 0 62.25-24.35ZM75.95-24.95L75.95-24.95Q79.05-24.95 80.7-23.28 82.34-21.6 82.4-18.25L82.4-18.25 82.4 0 78.3 0 78.3-17.05Q78.3-19.4 77.34-20.38 76.4-21.35 74.5-21.35L74.5-21.35Q73.25-21.35 72.07-20.95 70.9-20.55 69.47-19.65 68.05-18.75 66-17.25L66-17.25 65.7-20.25Q68.34-22.6 70.84-23.78 73.34-24.95 75.95-24.95ZM117.54-24.95L117.54-24.95Q120.24-24.95 122.12-24.23 123.99-23.5 124.94-21.8 125.89-20.1 125.89-17.15L125.89-17.15 125.89 0 122.54 0 121.89-5.3 121.59-5.85 121.59-17.15Q121.59-19.4 120.57-20.38 119.54-21.35 116.64-21.35L116.64-21.35Q114.74-21.35 111.87-21.15 108.99-20.95 106.19-20.7L106.19-20.7 105.79-23.85Q107.49-24.15 109.52-24.4 111.54-24.65 113.64-24.8 115.74-24.95 117.54-24.95ZM111.44-15L123.89-15 123.84-11.8 112.19-11.75Q110.44-11.7 109.74-10.83 109.04-9.95 109.04-8.4L109.04-8.4 109.04-6.85Q109.04-4.95 109.94-4.08 110.84-3.2 112.84-3.2L112.84-3.2Q114.24-3.2 116.02-3.73 117.79-4.25 119.59-5.35 121.39-6.45 122.89-8.15L122.89-8.15 122.89-5Q122.34-4.3 121.32-3.38 120.29-2.45 118.87-1.58 117.44-0.7 115.72-0.13 113.99 0.45 111.99 0.45L111.99 0.45Q109.84 0.45 108.19-0.33 106.54-1.1 105.62-2.63 104.69-4.15 104.69-6.35L104.69-6.35 104.69-9Q104.69-11.85 106.47-13.43 108.24-15 111.44-15L111.44-15ZM132.04-3.45L147.74-20.9 152.49-20.85 136.79-3.4 132.04-3.45ZM132.04-3.45L152.64-3.45 152.64 0 132.04 0 132.04-3.45ZM132.19-24.35L152.49-24.35 152.49-20.85 132.19-20.85 132.19-24.35ZM157.54-3.45L173.24-20.9 177.99-20.85 162.29-3.4 157.54-3.45ZM157.54-3.45L178.14-3.45 178.14 0 157.54 0 157.54-3.45ZM157.69-24.35L177.99-24.35 177.99-20.85 157.69-20.85 157.69-24.35ZM184.69-24.35L188.89-24.35 188.89 0 184.69 0 184.69-24.35ZM185.79-34.7L187.79-34.7Q189.09-34.7 189.09-33.4L189.09-33.4 189.09-30.55Q189.09-29.25 187.79-29.25L187.79-29.25 185.79-29.25Q184.49-29.25 184.49-30.55L184.49-30.55 184.49-33.4Q184.49-34.7 185.79-34.7L185.79-34.7Z"/></svg></g><g><svg id="dxe-0" data-fill-palette-color="accent" class="icon-dxe-0" width="58.99224675575318" height="57.6008" xml:space="preserve" style="enable-background:new 0 0 60 60;" viewBox="11.017823632605122 11.461749422187646 37.96369815853941 37.06825057781236" y="0" x="198.34920000000005" version="1.1" xmlns:xlink="http://www.w3.org/1999/xlink" xmlns="http://www.w3.org/2000/svg"><path data-fill-palette-color="accent" fill="#9e7aff" d="M48.85 34.1L35.82 11.92A0.945 0.945 0 0 0 34.2 11.92L30 19.08 25.79 11.93A0.945 0.945 0 0 0 24.17 11.93L11.15 34.1C10.93 34.47 10.99 34.93 11.29 35.23L24.32 48.26C24.5 48.44 24.74 48.53 24.98 48.53S25.46 48.44 25.64 48.26L30 43.91 34.35 48.26C34.53 48.44 34.77 48.53 35.01 48.53S35.49 48.44 35.67 48.26L48.7 35.23C49.01 34.93 49.07 34.46 48.85 34.1M24.99 46.28L13.13 34.42 24.99 14.24 28.92 20.92 21.17 34.1C20.95 34.47 21.01 34.93 21.31 35.23L28.67 42.59zM30 22.77L36.85 34.42 30 41.27 23.15 34.42zM35.01 46.28L31.32 42.59 38.68 35.23C38.98 34.93 39.04 34.46 38.82 34.1L31.08 20.93 35.01 14.25 46.87 34.43z"/></svg></g><g transform="matrix(1,0,0,1,270.9406467557532,10.950400000000002)"><svg data-palette-color="#ffffff" height="35.6" viewBox="1.2 -35 98.84 35.6" width="98.85000000000001"><path data-fill-palette-color="secondary" class="undefined-tk-1" fill="#ffffff" transform="matrix(1,0,0,1,0,0)" opacity="1" d="M12.3-34.5L16.7-34.5 16.7 0 12.3 0 12.3-34.5ZM1.2-34.5L27.85-34.5 27.85-30.6 1.2-30.6 1.2-34.5ZM37.35-24.95L37.35-24.95Q42.85-24.95 45.32-22.95 47.8-20.95 47.8-17L47.8-17Q47.85-13.75 46.45-11.93 45.05-10.1 42-10.1L42-10.1 27.8-10.1 27.8-13.4 40.9-13.4Q42.55-13.4 43.05-14.53 43.55-15.65 43.55-17L43.55-17Q43.5-19.35 42.15-20.35 40.8-21.35 37.55-21.35L37.55-21.35Q34.9-21.35 33.37-20.58 31.85-19.8 31.22-17.88 30.6-15.95 30.6-12.5L30.6-12.5Q30.6-8.6 31.37-6.55 32.15-4.5 33.85-3.75 35.55-3 38.35-3L38.35-3Q40.3-3 42.62-3.18 44.95-3.35 46.8-3.6L46.8-3.6 47.25-0.75Q46.1-0.3 44.42 0 42.75 0.3 40.97 0.45 39.2 0.6 37.8 0.6L37.8 0.6Q33.6 0.6 31.05-0.68 28.5-1.95 27.32-4.78 26.15-7.6 26.15-12.25L26.15-12.25Q26.15-17.05 27.32-19.83 28.5-22.6 30.97-23.78 33.45-24.95 37.35-24.95ZM64.59-24.95L64.59-24.95Q65.7-24.95 67.05-24.85 68.4-24.75 69.82-24.5 71.25-24.25 72.45-23.8L72.45-23.8 71.9-21.05Q70.25-21.2 68.42-21.28 66.59-21.35 65.3-21.35L65.3-21.35Q62.4-21.35 60.7-20.55 59-19.75 58.25-17.75 57.5-15.75 57.5-12.2L57.5-12.2Q57.5-8.65 58.25-6.63 59-4.6 60.7-3.8 62.4-3 65.3-3L65.3-3Q66.05-3 67.25-3.05 68.45-3.1 69.82-3.2 71.2-3.3 72.45-3.5L72.45-3.5 72.9-0.65Q71.05 0 68.87 0.3 66.7 0.6 64.55 0.6L64.55 0.6Q60.34 0.6 57.8-0.65 55.25-1.9 54.12-4.7 53-7.5 53-12.2L53-12.2Q53-16.9 54.15-19.7 55.3-22.5 57.84-23.73 60.4-24.95 64.59-24.95ZM93.44-24.95L93.44-24.95Q100.04-24.95 100.04-18.25L100.04-18.25 100.04 0 95.74 0 95.74-17.05Q95.74-19.5 94.97-20.43 94.19-21.35 92.29-21.35L92.29-21.35Q90.04-21.35 87.79-20.3 85.54-19.25 82.44-17.25L82.44-17.25 82.24-20.3Q85.09-22.45 87.89-23.7 90.69-24.95 93.44-24.95ZM78.64-35L82.89-35 82.94-25.35Q82.94-23.7 82.82-22.25 82.69-20.8 82.44-19.7L82.44-19.7 82.89-18.95 82.89 0 78.64 0 78.64-35Z"/></svg></g></svg></g></svg></g></svg></g></svg></g><g/></svg></g><defs/></svg><rect visibility="hidden" stroke="none" fill="none" height="57.6008" width="369.79064675575324"/></g></svg></g></svg>